Coordinates
version=1
nRows=8
nColumns=40
inDegrees=yes

Units are S.I. units (second, meters, Newtons, ...)
Angles are in degrees.

endheader
time	pelvis_tilt	pelvis_list	pelvis_rotation	pelvis_tx	pelvis_ty	pelvis_tz	hip_flexion_r	hip_adduction_r	hip_rotation_r	knee_angle_r	knee_angle_r_beta	ankle_angle_r	subtalar_angle_r	mtp_angle_r	hip_flexion_l	hip_adduction_l	hip_rotation_l	knee_angle_l	knee_angle_l_beta	ankle_angle_l	subtalar_angle_l	mtp_angle_l	lumbar_extension	lumbar_bending	lumbar_rotation	arm_flex_r	arm_add_r	arm_rot_r	elbow_flex_r	pro_sup_r	wrist_flex_r	wrist_dev_r	arm_flex_l	arm_add_l	arm_rot_l	elbow_flex_l	pro_sup_l	wrist_flex_l	wrist_dev_l
     23.45428571	     -5.00203320	     -4.79529682	     -5.94051899	      0.94209049	      0.91577781	      0.55985797	     16.49898968	      6.19051019	     -4.75619168	     26.84787692	     26.84787692	     16.95398383	     -4.04733538	     -1.82001708	     24.58738739	    -17.64991000	     -0.94399066	     55.84387159	     55.84387159	     19.75880529	    -19.57318667	     22.51343961	    -12.08876468	      8.63206216	     -0.39484303	     19.75061980	    -16.23723345	    -19.83207779	     34.52263717	     46.37875325	      0.00000000	      0.00000000	     10.10160479	     -8.56507722	      3.45093461	     36.80837382	     46.71608414	      0.00000000	      0.00000000
     23.47357143	     -4.69305907	     -4.76324390	     -5.19598284	      0.94072257	      0.91265046	      0.55917155	     16.88867787	      6.18070267	     -4.30707677	     28.72723539	     28.72723539	     17.73272161	     -6.22692638	     -1.95089396	     25.62435909	    -16.94049140	     -0.04913721	     54.45857765	     54.45857765	     19.83249106	    -19.57362460	     22.62594924	    -12.37867324	      8.24018009	     -0.77149236	     21.27615175	    -15.38087046	    -19.03143138	     36.61774528	     46.24948373	      0.00000000	      0.00000000	      8.40265172	     -8.45074145	      3.54544228	     33.43085767	     46.66731433	      0.00000000	      0.00000000
     23.49285714	     -4.40400692	     -4.85482974	     -4.38540489	      0.93938136	      0.90972514	      0.55833744	     17.11292757	      6.29351018	     -4.02243643	     30.28106077	     30.28106077	     18.42392158	     -8.18782395	     -1.89396948	     26.71941404	    -16.28223797	      0.84080406	     53.09478206	     53.09478206	     19.80780520	    -19.56875228	     22.73585138	    -12.61566230	      8.01704635	     -1.22673320	     22.80814584	    -14.43066482	    -17.99673574	     39.27484631	     46.08875680	      0.00000000	      0.00000000	      6.76111768	     -8.46598714	      3.61299323	     30.09642084	     46.62705127	      0.00000000	      0.00000000
     23.51214286	     -4.20035917	     -5.02221252	     -3.50918337	      0.93814186	      0.90727991	      0.55732110	     17.13763743	      6.44014334	     -4.04069134	     31.30906771	     31.30906771	     19.07624087	     -9.70460515	     -1.54630332	     27.86991376	    -15.64464632	      1.65888046	     51.68517831	     51.68517831	     19.71716711	    -19.57147032	     22.75953206	    -12.76757709	      7.87509778	     -1.54064379	     23.77063320	    -13.74179690	    -16.14268308	     43.22956513	     45.83724339	      0.00000000	      0.00000000	      5.32944082	     -8.41540165	      3.55783171	     26.50713496	     46.61350503	      0.00000000	      0.00000000
     23.53142857	     -4.01861325	     -5.07955059	     -2.69761317	      0.93688502	      0.90533670	      0.55612603	     17.11633219	      6.38364177	     -4.23332020	     32.22732562	     32.22732562	     19.69584147	    -10.62973808	     -1.33828767	     28.93699085	    -14.89454934	      2.24539762	     50.22240760	     50.22240760	     19.54376526	    -19.54937478	     22.63701577	    -12.94793988	      7.58797754	     -1.57784538	     24.73822320	    -13.19617101	    -14.33086238	     47.42772472	     45.59303252	      0.00000000	      0.00000000	      3.83580779	     -8.59064335	      3.40447817	     24.19028258	     46.61746401	      0.00000000	      0.00000000
     23.55071429	     -3.89616117	     -5.25124130	     -1.89186956	      0.93584200	      0.90424145	      0.55478954	     16.83060937	      6.39744964	     -4.66956961	     32.59311178	     32.59311178	     20.40391293	    -10.96124660	     -0.49527202	     29.93184700	    -14.26218954	      2.78559596	     48.62797870	     48.62797870	     19.07498941	    -19.51042822	     22.00081193	    -13.14198860	      7.42234604	     -0.25491315	     23.35401753	    -14.90744031	     -9.56403118	     56.44980812	     45.06678542	      0.00000000	      0.00000000	      3.16735482	     -8.49327761	      2.49539835	     22.13682072	     46.76610273	      0.00000000	      0.00000000
     23.57000000	     -3.88845155	     -5.28857559	     -1.09595085	      0.93490679	      0.90387799	      0.55316694	     16.44701625	      6.24054461	     -5.15989005	     32.53461458	     32.53461458	     20.74939401	    -11.16492554	     -0.32620555	     30.86004132	    -13.47085036	      3.23820523	     46.86063086	     46.86063086	     18.49302706	    -19.45131181	     21.30707138	    -13.13466429	      7.11364217	     -0.14297142	     24.41539509	    -14.61588622	     -8.33627517	     61.36052212	     44.88196996	      0.00000000	      0.00000000	      1.36060709	     -8.95137176	      1.89481503	     21.77591532	     46.81786340	      0.00000000	      0.00000000
     23.58928571	     -3.96886043	     -5.29778554	     -0.30189566	      0.93414392	      0.90429846	      0.55122522	     15.90500894	      6.02765531	     -5.72138296	     32.03069049	     32.03069049	     20.92329735	    -11.11328843	     -0.28510023	     31.68990687	    -12.61076053	      3.78038544	     44.92146760	     44.92146760	     17.87156480	    -19.34910692	     20.80524844	    -12.97064470	      6.79071133	     -0.36891021	     26.23341144	    -13.80879370	     -7.63169107	     65.13283105	     44.74575557	      0.00000000	      0.00000000	     -0.47248656	     -9.47949495	      1.65524254	     21.36825958	     46.81400467	      0.00000000	      0.00000000
